<!-- Gajah Nusa Logo - Professional Version -->
<svg width="200" height="200" viewBox="0 0 200 200" xmlns="http://www.w3.org/2000/svg">
  <defs>
    <!-- Gradients -->
    <radialGradient id="goldRing" cx="50%" cy="30%" r="70%">
      <stop offset="0%" style="stop-color:#FFD700;stop-opacity:1" />
      <stop offset="70%" style="stop-color:#FFA500;stop-opacity:1" />
      <stop offset="100%" style="stop-color:#DAA520;stop-opacity:1" />
    </radialGradient>
    
    <radialGradient id="greenCircle" cx="50%" cy="30%" r="70%">
      <stop offset="0%" style="stop-color:#32CD32;stop-opacity:1" />
      <stop offset="70%" style="stop-color:#228B22;stop-opacity:1" />
      <stop offset="100%" style="stop-color:#006400;stop-opacity:1" />
    </radialGradient>
    
    <linearGradient id="blueTriangle" x1="0%" y1="0%" x2="100%" y2="100%">
      <stop offset="0%" style="stop-color:#4169E1;stop-opacity:1" />
      <stop offset="100%" style="stop-color:#1e3a8a;stop-opacity:1" />
    </linearGradient>
    
    <radialGradient id="goldStar" cx="50%" cy="50%" r="50%">
      <stop offset="0%" style="stop-color:#FFFF00;stop-opacity:1" />
      <stop offset="100%" style="stop-color:#FFD700;stop-opacity:1" />
    </radialGradient>
    
    <!-- Filters -->
    <filter id="dropShadow" x="-50%" y="-50%" width="200%" height="200%">
      <feGaussianBlur in="SourceAlpha" stdDeviation="4"/>
      <feOffset dx="0" dy="4" result="offset"/>
      <feFlood flood-color="#000000" flood-opacity="0.25"/>
      <feComposite in2="offset" operator="in"/>
      <feMerge> 
        <feMergeNode/>
        <feMergeNode in="SourceGraphic"/> 
      </feMerge>
    </filter>
    
    <filter id="innerShadow" x="-50%" y="-50%" width="200%" height="200%">
      <feGaussianBlur in="SourceGraphic" stdDeviation="2"/>
      <feOffset dx="0" dy="2" result="offset"/>
    </filter>
  </defs>
  
  <!-- Background Circle for depth -->
  <circle cx="100" cy="100" r="95" fill="#2c3e50" opacity="0.1"/>
  
  <!-- Outer Gold Ring -->
  <circle cx="100" cy="100" r="85" fill="url(#goldRing)" filter="url(#dropShadow)" stroke="#B8860B" stroke-width="2"/>
  
  <!-- Inner Green Circle -->
  <circle cx="100" cy="100" r="65" fill="url(#greenCircle)" filter="url(#innerShadow)" stroke="#1F4F1F" stroke-width="1"/>
  
  <!-- Triangle Background Shadow -->
  <polygon points="100,55 70,125 130,125" fill="#000000" opacity="0.2" transform="translate(2,2)"/>
  
  <!-- Main Triangle -->
  <polygon points="100,55 70,125 130,125" fill="url(#blueTriangle)" stroke="#0F2A5A" stroke-width="2" filter="url(#dropShadow)"/>
  
  <!-- Triangle Border Highlight -->
  <polygon points="100,55 70,125 130,125" fill="none" stroke="#FFD700" stroke-width="1" opacity="0.6"/>
  
  <!-- Star Shadow -->
  <polygon points="100,75 103,85 115,85 105,92 108,102 100,96 92,102 95,92 85,85 97,85" fill="#000000" opacity="0.3" transform="translate(1,1)"/>
  
  <!-- Main Star -->
  <polygon points="100,75 103,85 115,85 105,92 108,102 100,96 92,102 95,92 85,85 97,85" fill="url(#goldStar)" stroke="#DAA520" stroke-width="0.5"/>
  
  <!-- Star Highlight -->
  <polygon points="100,75 103,85 115,85 105,92 108,102 100,96 92,102 95,92 85,85 97,85" fill="#FFFFFF" opacity="0.3"/>
</svg>
